HIERARCHY
ROOT SpineBase
{
  OFFSET 0.000000 0.000000 0.000000
  CHANNELS 6 Xposition Yposition Zposition Zrotation Xrotation Yrotation
  JOINT SpineMid
  {
    OFFSET -0.000000 32.310476 0.000000
    CHANNELS 3 Zrotation Xrotation Yrotation
    JOINT SpineShoulder
    {
      OFFSET 0.072427 24.071021 -0.892111
      CHANNELS 3 Zrotation Xrotation Yrotation
      JOINT Neck
      {
        OFFSET 0.051817 7.981080 -0.649269
        CHANNELS 3 Zrotation Xrotation Yrotation
        JOINT Head
        {
          OFFSET 0.883805 11.838834 4.011989
          CHANNELS 3 Zrotation Xrotation Yrotation
          End Site
          {
            OFFSET 0 0 0
          }
        }
      }
      JOINT ShoulderLeft
      {
        OFFSET -10.709286 -5.645886 -3.528003
        CHANNELS 3 Zrotation Xrotation Yrotation
        JOINT ElbowLeft
        {
          OFFSET 1.530084 -19.537422 2.678984
          CHANNELS 3 Zrotation Xrotation Yrotation
          JOINT WristLeft
          {
            OFFSET 24.492140 -10.503577 -8.525128
            CHANNELS 3 Zrotation Xrotation Yrotation
            JOINT HandLeft
            {
              OFFSET 0.990340 -3.763417 0.382682
              CHANNELS 3 Zrotation Xrotation Yrotation
              JOINT HandTipLeft
              {
                OFFSET 5.419404 -5.937918 1.193411
                CHANNELS 3 Zrotation Xrotation Yrotation
                End Site
                {
                  OFFSET 0 0 0
                }
              }
              JOINT ThumbLeft
              {
                OFFSET -4.976262 -6.075948 -1.192792
                CHANNELS 3 Zrotation Xrotation Yrotation
                End Site
                {
                  OFFSET 0 0 0
                }
              }
            }
          }
        }
      }
      JOINT ShoulderRight
      {
        OFFSET 11.275119 -7.346261 -12.248491
        CHANNELS 3 Zrotation Xrotation Yrotation
        JOINT ElbowRight
        {
          OFFSET 7.576876 -21.150785 -0.084052
          CHANNELS 3 Zrotation Xrotation Yrotation
          JOINT WristRight
          {
            OFFSET 0.874361 -24.093170 7.908617
            CHANNELS 3 Zrotation Xrotation Yrotation
            JOINT HandRight
            {
              OFFSET 0.249348 -5.695451 2.845748
              CHANNELS 3 Zrotation Xrotation Yrotation
              JOINT HandTipRight
              {
                OFFSET -0.862606 -6.917788 1.133991
                CHANNELS 3 Zrotation Xrotation Yrotation
                End Site
                {
                  OFFSET 0 0 0
                }
              }
              JOINT ThumbRight
              {
                OFFSET 3.427702 0.265670 -2.721135
                CHANNELS 3 Zrotation Xrotation Yrotation
                End Site
                {
                  OFFSET 0 0 0
                }
              }
            }
          }
        }
      }
    }
  }
  JOINT HipLeft
  {
    OFFSET -4.447548 1.688938 -0.641927
    CHANNELS 3 Zrotation Xrotation Yrotation
    JOINT KneeLeft
    {
      OFFSET -3.923526 -31.170616 -1.929101
      CHANNELS 3 Zrotation Xrotation Yrotation
      JOINT AnkleLeft
      {
        OFFSET -4.139221 -35.262172 0.272572
        CHANNELS 3 Zrotation Xrotation Yrotation
        JOINT FootLeft
        {
          OFFSET 0.861512 -4.511749 -6.582830
          CHANNELS 3 Zrotation Xrotation Yrotation
          End Site
          {
            OFFSET 0 0 0
          }
        }
      }
    }
  }
  JOINT HipRight
  {
    OFFSET 4.951295 1.727841 -5.738916
    CHANNELS 3 Zrotation Xrotation Yrotation
    JOINT KneeRight
    {
      OFFSET -1.240334 -28.349235 -0.682400
      CHANNELS 3 Zrotation Xrotation Yrotation
      JOINT AnkleRight
      {
        OFFSET -1.902018 -33.457020 -3.427146
        CHANNELS 3 Zrotation Xrotation Yrotation
        JOINT FootRight
        {
          OFFSET -6.314792 -2.728348 -5.220816
          CHANNELS 3 Zrotation Xrotation Yrotation
          End Site
          {
            OFFSET 0 0 0
          }
        }
      }
    }
  }
}
MOTION
Frames: 14
Frame Time: 0.033333
-15.905985 70.520393 202.753501 0.000000 0.000000 28.470962 -0.000000 0.000000 -28.470962 -0.000000 0.000000 0.000000 -0.000000 0.000000 0.000000 0.000000 0.000000 0.000000 -0.000000 0.000000 0.000000 -0.000000 0.000000 0.000000 -0.000000 0.000000 0.000000 -0.000000 0.000000 0.000000 0.000000 0.000000 0.000000 0.000000 0.000000 0.000000 -0.000000 0.000000 0.000000 -0.000000 0.000000 0.000000 -0.000000 0.000000 0.000000 -0.000000 0.000000 0.000000 0.000000 0.000000 0.000000 0.000000 0.000000 0.000000 -0.000000 0.000000 -28.470962 -0.000000 0.000000 0.000000 -0.000000 0.000000 0.000000 0.000000 0.000000 0.000000 -0.000000 0.000000 -28.470962 -0.000000 0.000000 0.000000 -0.000000 0.000000 0.000000 0.000000 0.000000 0.000000
-15.827731 70.521979 202.906706 -0.018721 -0.005097 28.295436 0.018900 -0.004386 -28.295436 -0.000000 0.000000 0.000000 -0.000000 0.000000 0.000000 0.000000 0.000000 0.000000 -0.000000 0.000000 0.000000 -0.000000 0.000000 0.000000 4.306132 -0.670069 0.283958 -7.406155 0.824150 -0.716398 0.000000 0.000000 0.000000 0.000000 0.000000 0.000000 -0.788991 -1.265244 -0.459998 0.779000 1.271419 0.442642 -0.934632 -0.758330 -0.504895 2.012530 1.190436 0.600821 0.000000 0.000000 0.000000 0.000000 0.000000 0.000000 0.018900 -0.004386 -28.295436 -0.000000 0.000000 0.000000 -8.395970 -1.777339 12.204778 0.000000 0.000000 0.000000 0.018900 -0.004386 -28.295436 -0.000000 0.000000 0.000000 6.526115 -4.682400 -1.760952 0.000000 0.000000 0.000000
-15.761278 70.523054 203.044869 -0.042362 -0.005609 28.139504 0.040000 -0.015033 -28.139501 -0.000000 0.000000 0.000000 -0.000000 0.000000 0.000000 0.000000 0.000000 0.000000 -0.000000 0.000000 0.000000 1.111277 0.592513 0.461520 6.656552 -1.478246 0.227677 -13.631361 1.083198 -1.513692 0.000000 0.000000 0.000000 0.000000 0.000000 0.000000 -1.427196 -2.217844 -0.820265 1.396372 2.237373 0.765369 -1.708881 -1.284474 -0.924709 3.768621 2.085517 1.075500 0.000000 0.000000 0.000000 0.000000 0.000000 0.000000 0.040000 -0.015033 -28.139501 -0.000000 0.000000 0.000000 -15.358790 -4.222031 22.695612 0.000000 0.000000 0.000000 0.040000 -0.015033 -28.139501 -0.000000 0.000000 0.000000 12.351367 -9.012537 -3.083851 0.000000 0.000000 0.000000
-15.706627 70.523618 203.167990 -0.070925 -0.001534 28.003377 0.063341 -0.031946 -28.003361 -0.000000 0.000000 0.000000 -0.000000 0.000000 0.000000 0.000000 0.000000 0.000000 -0.000000 0.000000 0.000000 1.421180 0.744315 0.553890 9.048152 -1.357834 0.523415 -18.583591 0.797931 -2.493363 0.000000 0.000000 0.000000 0.000000 0.000000 0.000000 -1.939459 -2.912957 -1.092046 2.678127 3.526160 1.233116 -3.156140 -2.153527 -1.577203 5.279558 2.687173 1.458395 0.000000 0.000000 0.000000 0.000000 0.000000 0.000000 0.063341 -0.031946 -28.003361 -0.000000 0.000000 0.000000 -20.176719 -6.119151 30.231431 0.000000 0.000000 0.000000 0.063341 -0.031946 -28.003361 -0.731618 0.805343 0.034264 17.879417 -13.368608 -3.865791 0.000000 0.000000 0.000000
-15.663777 70.523671 203.276068 -0.104408 0.007125 27.887223 0.088951 -0.055133 -27.887173 -0.000000 0.000000 0.000000 -0.000000 0.000000 0.000000 0.000000 0.000000 0.000000 -0.000000 0.000000 0.000000 1.568546 0.798236 0.556337 10.903419 -0.689941 0.872883 -22.210645 -0.010758 -3.703022 0.000000 0.000000 0.000000 0.000000 0.000000 0.000000 -2.343941 -3.388349 -1.283694 3.272981 4.078351 1.435676 -3.883211 -2.331984 -1.927530 6.548350 2.992286 1.775565 0.000000 0.000000 0.000000 0.000000 0.000000 0.000000 0.088951 -0.055133 -27.887173 -0.000000 0.000000 0.000000 -23.108236 -6.754313 34.893378 0.000000 0.000000 0.000000 0.088951 -0.055133 -27.887173 -0.921966 1.033387 0.043948 21.545818 -16.152580 -4.604337 0.000000 0.000000 0.000000
-15.632728 70.523213 203.369105 -0.142814 0.020371 27.791165 0.116843 -0.084609 -27.791053 -0.000000 0.000000 0.000000 -0.000000 0.000000 0.000000 0.000000 0.000000 0.000000 -0.000000 0.000000 0.000000 1.553629 0.753977 0.469498 12.274537 0.509046 1.257352 -24.507726 -1.335123 -5.139053 0.000000 0.000000 0.000000 0.000000 0.000000 0.000000 -2.653776 -3.668953 -1.400981 3.737670 4.349379 1.559080 -4.451182 -2.246490 -2.185810 7.573002 2.993458 2.046159 0.000000 0.000000 0.000000 0.000000 0.000000 0.000000 0.116843 -0.084609 -27.791053 -0.000000 0.000000 0.000000 -24.587060 -5.949284 37.163324 0.000000 0.000000 0.000000 0.116843 -0.084609 -27.791053 -1.081320 1.236965 0.052032 23.747627 -17.803982 -5.397877 0.000000 0.000000 0.000000
-15.615117 70.525791 203.431875 -0.192853 0.036635 27.692838 0.153737 -0.122063 -27.692613 -0.000000 0.000000 0.000000 -0.000000 0.000000 0.000000 0.000000 0.000000 0.000000 -0.000000 0.000000 0.000000 0.978692 0.348812 0.015665 13.613191 3.967832 2.081534 -25.094057 -4.637061 -7.600961 0.000000 0.000000 0.000000 0.000000 0.000000 0.000000 -2.656072 -3.587196 -1.369577 3.816909 4.013901 1.543327 -4.808006 -1.505664 -2.301992 9.140789 1.957223 2.490847 0.000000 0.000000 0.000000 0.000000 0.000000 0.000000 0.153737 -0.122063 -27.692613 -0.000000 0.000000 0.000000 -23.126887 -9.983608 35.147487 0.000000 0.000000 0.000000 0.153737 -0.122063 -27.692613 -1.218125 1.388035 0.060514 30.643203 -23.216152 11.887623 0.000000 0.000000 0.000000
-15.610678 70.522953 203.487577 -0.254551 0.062675 27.652807 0.196388 -0.173656 -27.652370 -0.000000 0.000000 0.000000 0.622510 0.700773 -0.266638 0.000000 0.000000 0.000000 3.647660 0.928825 0.542750 -3.656739 -0.892367 -0.600814 19.271155 -1.484613 1.758609 -28.348177 -0.753400 -5.878960 0.000000 0.000000 0.000000 0.000000 0.000000 0.000000 -2.792262 -3.488132 -1.335648 4.055968 3.719706 1.526959 -5.126792 -1.025251 -2.408595 9.489356 1.427185 2.690153 0.000000 0.000000 0.000000 0.000000 0.000000 0.000000 0.196388 -0.173656 -27.652370 -0.000000 0.000000 0.000000 -21.945190 -3.278663 32.884806 0.000000 0.000000 0.000000 0.196388 -0.173656 -27.652370 -1.340811 1.559461 0.066802 28.635040 -22.071790 7.996586 0.000000 0.000000 0.000000
-15.618088 70.513279 203.532975 -0.310366 0.085049 27.620164 0.235569 -0.219243 -27.619483 -0.000000 0.000000 0.000000 0.714576 0.787255 -0.305273 0.000000 0.000000 0.000000 2.779177 0.484779 0.406825 -2.782640 -0.464471 -0.429866 -1.767913 4.744416 1.152155 -6.982981 -7.275732 -6.405461 0.000000 0.000000 0.000000 0.000000 0.000000 0.000000 -2.865299 -3.202804 -1.227464 4.115064 3.186292 1.420237 -5.217189 -0.082938 -2.387100 9.195587 0.671212 2.761470 0.000000 0.000000 0.000000 0.000000 0.000000 0.000000 0.235569 -0.219243 -27.619483 -0.000000 0.000000 0.000000 -19.233217 6.933694 28.586298 0.000000 0.000000 0.000000 0.235569 -0.219243 -27.619483 -1.408576 1.774665 0.065065 23.786936 -18.131062 -4.186082 0.000000 0.000000 0.000000
-15.624843 70.500343 203.588694 -0.356061 0.105513 27.581778 0.266743 -0.258381 -27.580849 -0.000000 0.000000 0.000000 0.786901 0.834939 -0.334083 0.000000 0.000000 0.000000 -4.936678 -2.363026 -0.964811 5.644242 2.450872 0.142540 8.485603 19.465709 5.088202 -21.700801 -19.321729 -15.869382 0.000000 0.000000 0.000000 0.000000 0.000000 0.000000 -3.194816 -3.018138 -1.164647 4.457911 2.851313 1.349952 -4.972906 0.902681 -2.193713 8.624072 -0.449926 2.697032 0.000000 0.000000 0.000000 0.000000 0.000000 0.000000 0.266743 -0.258381 -27.580849 -0.000000 0.000000 0.000000 -17.676354 10.893282 26.369251 0.000000 0.000000 0.000000 0.266743 -0.258381 -27.580849 -1.416787 1.940769 0.058648 20.013751 -14.397194 -9.985967 0.000000 0.000000 0.000000
-15.648775 70.492490 203.659653 -0.402419 0.134281 27.602036 0.294407 -0.305447 -27.600779 -0.000000 0.000000 0.000000 0.761251 0.706651 -0.314925 0.000000 0.000000 0.000000 -10.747110 -4.382661 -2.238289 11.275285 4.444701 0.129263 13.078276 28.471683 6.583200 -28.851486 -25.512679 -21.972264 0.000000 0.000000 0.000000 0.000000 0.000000 0.000000 -3.462601 -2.949164 -1.144587 4.708765 2.652169 1.311626 -4.547585 1.812647 -1.925502 7.608062 -1.296052 2.440855 0.000000 0.000000 0.000000 0.000000 0.000000 0.000000 0.294407 -0.305447 -27.600779 -0.000000 0.000000 0.000000 -17.416018 10.915576 26.005068 0.000000 0.000000 0.000000 0.294407 -0.305447 -27.600779 -1.324920 1.849868 0.051821 10.307296 -0.097279 -24.562010 0.000000 0.000000 0.000000
-15.679850 70.491845 203.737895 -0.438906 0.168609 27.634446 0.310638 -0.352947 -27.632843 -0.000000 0.000000 0.000000 0.765610 0.451830 -0.295958 0.000000 0.000000 0.000000 -14.316577 -5.374202 -3.079741 15.119650 5.715177 0.111843 17.850328 31.474594 6.270362 -37.605976 -25.326217 -26.651059 0.000000 0.000000 0.000000 0.000000 0.000000 0.000000 -3.567602 -2.664248 -1.035010 4.746552 2.443448 1.201712 -3.964224 2.192540 -1.634595 6.317351 -1.952739 2.075249 0.000000 0.000000 0.000000 0.000000 0.000000 0.000000 0.977642 0.151857 -27.748987 -0.355276 -0.757300 0.114966 -15.792400 14.133618 23.795904 0.000000 0.000000 0.000000 0.310638 -0.352947 -27.632843 -1.176298 1.824450 0.035421 4.174105 10.393193 -29.377370 0.000000 0.000000 0.000000
-15.738930 70.502109 203.854614 -0.448306 0.209415 27.515706 0.300855 -0.392835 -27.513855 -0.000000 0.000000 0.000000 0.721387 0.324090 -0.270572 0.000000 0.000000 0.000000 -15.943131 -5.585097 -3.434492 17.434003 6.378470 0.262763 19.609151 30.805759 5.738204 -39.766252 -23.576134 -26.117860 0.000000 0.000000 0.000000 0.000000 0.000000 0.000000 -3.690679 -2.656816 -1.034879 4.795074 2.615353 1.180912 -3.485689 1.973783 -1.432116 5.902938 -1.460108 1.789508 0.000000 0.000000 0.000000 0.000000 0.000000 0.000000 1.177884 0.034030 -27.645726 -0.578854 -0.785069 0.130651 -17.579750 9.684884 26.228156 0.000000 0.000000 0.000000 0.623599 0.406037 -27.549414 -0.909330 0.690399 0.048229 -8.202274 32.197548 -33.062946 0.000000 0.000000 0.000000
-15.855250 70.515587 204.029123 -0.461960 0.255567 27.206977 0.294012 -0.438496 -27.204822 -0.000000 0.000000 0.000000 0.829030 0.137279 -0.292230 0.000000 0.000000 0.000000 -15.973559 -5.150051 -3.346458 17.983010 6.217533 0.465145 20.470346 29.132139 5.277722 -37.284270 -22.242774 -22.347802 0.000000 0.000000 0.000000 0.000000 0.000000 0.000000 -3.746660 -2.525160 -0.984041 4.707616 2.595239 1.100698 -2.819764 1.858467 -1.139452 4.008522 -1.293516 1.223013 0.000000 0.000000 0.000000 0.000000 0.000000 0.000000 1.131950 -0.236127 -27.311204 -0.651665 -0.564282 0.108106 -16.630785 11.846308 24.918298 0.000000 0.000000 0.000000 0.711396 0.469570 -27.247552 -0.694104 0.411183 0.034638 -15.492050 47.124281 -35.685452 0.000000 0.000000 0.000000
